<?xml version="1.0" encoding="UTF-8"?>
<!DOCTYPE svg PUBLIC "-//W3C//DTD SVG 1.1//EN" "http://www.w3.org/Graphics/SVG/1.1/DTD/svg11.dtd">
<!-- Creator: CorelDRAW 2019 (64 Bit) -->
<svg xmlns="http://www.w3.org/2000/svg" xml:space="preserve" width="707px" height="200px" version="1.1" style="shape-rendering:geometricPrecision; text-rendering:geometricPrecision; image-rendering:optimizeQuality; fill-rule:evenodd; clip-rule:evenodd"
viewBox="0 0 707 200"
 xmlns:xlink="http://www.w3.org/1999/xlink">
 <defs>
  <style type="text/css">
   <![CDATA[
    .fil0 {fill:none}
    .fil1 {fill:#0044A9}
    .fil2 {fill:#FEFEFE;fill-rule:nonzero}
    .fil6 {fill:#4B4B4D;fill-rule:nonzero}
    .fil3 {fill:#0044A9;fill-rule:nonzero}
    .fil5 {fill:#0044A9;fill-rule:nonzero}
    .fil4 {fill:#589AF8;fill-rule:nonzero}
   ]]>
  </style>
 </defs>
 <g id="Camada_x0020_1">
  <metadata id="CorelCorpID_0Corel-Layer"/>
  <rect class="fil0" x="-0.5" width="707" height="200"/>
  <rect class="fil0" x="-0.5" width="707" height="200"/>
  <path class="fil1" d="M120.68 181.35l-120.74 0c7.59,-91.6 120.83,-80.65 120.74,0z"/>
  <ellipse class="fil1" cx="60.59" cy="74.8" rx="35.14" ry="36.09"/>
  <g>
   <path class="fil2" d="M47.15 92.55c-0.23,-0.39 -0.07,-0.88 0.35,-1.09 0.42,-0.21 0.95,-0.06 1.18,0.33l-1.53 0.76zm27.37 -1.5l1.51 0.79 -0.57 0.85 -0.63 0.81 -0.69 0.76 -0.75 0.7 -0.8 0.66 -0.85 0.61 -0.89 0.55 -0.92 0.5 -0.96 0.45 -0.99 0.4 -1.01 0.35 -1.04 0.29 -1.05 0.24 -1.06 0.18 -1.08 0.13 -1.08 0.08 -1.07 0.02 -1.08 -0.03 -1.07 -0.1 -1.06 -0.15 -1.04 -0.2 -1.02 -0.27 -1 -0.33 -0.97 -0.39 -0.94 -0.45 -0.9 -0.51 -0.86 -0.58 -0.82 -0.64 -0.76 -0.71 -0.7 -0.77 -0.65 -0.84 -0.57 -0.9 1.53 -0.76 0.5 0.79 0.56 0.72 0.61 0.67 0.66 0.61 0.71 0.56 0.75 0.51 0.79 0.45 0.83 0.4 0.86 0.34 0.89 0.29 0.92 0.24 0.94 0.19 0.95 0.14 0.97 0.08 0.98 0.03 0.98 -0.02 0.99 -0.07 0.97 -0.12 0.97 -0.16 0.96 -0.22 0.95 -0.27 0.92 -0.31 0.89 -0.36 0.87 -0.41 0.83 -0.45 0.8 -0.5 0.76 -0.54 0.71 -0.58 0.66 -0.63 0.61 -0.66 0.55 -0.71 0.5 -0.75zm0 0c0.23,-0.39 0.76,-0.53 1.18,-0.31 0.42,0.22 0.56,0.71 0.33,1.1l-1.51 -0.79z"/>
  </g>
  <g>
   <path class="fil3" d="M7.17 47.84c-0.09,0.43 -0.55,0.72 -1.02,0.63 -0.47,-0.08 -0.77,-0.5 -0.68,-0.94l1.7 0.31zm28.25 -28.3l0.24 1.59 -1.52 0.24 -1.49 0.31 -1.45 0.37 -1.4 0.43 -1.37 0.49 -1.32 0.54 -1.29 0.59 -1.25 0.65 -1.2 0.69 -1.17 0.73 -1.12 0.78 -1.09 0.81 -1.04 0.85 -1 0.88 -0.96 0.92 -0.92 0.94 -0.88 0.97 -0.83 0.98 -0.8 1.01 -0.75 1.02 -0.71 1.04 -0.67 1.05 -0.62 1.05 -0.58 1.07 -0.54 1.06 -0.49 1.06 -0.45 1.06 -0.4 1.05 -0.36 1.04 -0.32 1.03 -0.27 1.01 -0.23 0.99 -1.7 -0.31 0.24 -1.05 0.29 -1.06 0.33 -1.08 0.38 -1.09 0.42 -1.1 0.47 -1.11 0.51 -1.1 0.56 -1.11 0.61 -1.11 0.65 -1.1 0.69 -1.09 0.74 -1.08 0.79 -1.07 0.82 -1.05 0.88 -1.03 0.91 -1.01 0.97 -0.99 1 -0.95 1.05 -0.93 1.1 -0.89 1.14 -0.86 1.18 -0.81 1.23 -0.77 1.27 -0.73 1.31 -0.68 1.36 -0.63 1.4 -0.57 1.45 -0.52 1.48 -0.45 1.53 -0.39 1.57 -0.32 1.62 -0.26zm0 0c0.47,-0.06 0.91,0.24 0.98,0.68 0.06,0.44 -0.26,0.85 -0.74,0.91l-0.24 -1.59z"/>
  </g>
  <g>
   <path class="fil3" d="M15.77 50.08c-0.1,0.44 -0.55,0.72 -1.02,0.64 -0.47,-0.08 -0.78,-0.51 -0.69,-0.94l1.71 0.3zm21.45 -21.86l0.08 1.6 -1.05 0.09 -1.04 0.14 -1.02 0.2 -1 0.26 -0.97 0.31 -0.97 0.37 -0.93 0.41 -0.92 0.46 -0.9 0.51 -0.87 0.55 -0.85 0.58 -0.83 0.63 -0.8 0.65 -0.78 0.69 -0.75 0.71 -0.72 0.74 -0.69 0.77 -0.66 0.78 -0.63 0.8 -0.61 0.82 -0.57 0.82 -0.54 0.83 -0.5 0.84 -0.47 0.84 -0.44 0.85 -0.4 0.83 -0.36 0.83 -0.33 0.82 -0.29 0.82 -0.25 0.79 -0.22 0.77 -0.17 0.75 -1.71 -0.3 0.19 -0.82 0.24 -0.83 0.26 -0.85 0.31 -0.86 0.35 -0.87 0.39 -0.88 0.42 -0.88 0.46 -0.89 0.49 -0.88 0.53 -0.88 0.57 -0.88 0.6 -0.87 0.63 -0.85 0.67 -0.84 0.7 -0.83 0.73 -0.8 0.76 -0.79 0.79 -0.76 0.83 -0.73 0.85 -0.69 0.88 -0.67 0.92 -0.63 0.94 -0.59 0.97 -0.54 0.99 -0.5 1.03 -0.45 1.04 -0.4 1.08 -0.35 1.1 -0.28 1.12 -0.22 1.15 -0.16 1.17 -0.09zm0 0c0.47,-0.03 0.88,0.32 0.91,0.76 0.02,0.44 -0.35,0.82 -0.83,0.84l-0.08 -1.6z"/>
  </g>
  <g>
   <path class="fil3" d="M23.25 54.23c-0.1,0.43 -0.55,0.72 -1.02,0.63 -0.47,-0.08 -0.78,-0.5 -0.69,-0.94l1.71 0.31zm16.72 -18.17l0.28 1.59 -1.03 0.18 -0.98 0.21 -0.95 0.25 -0.91 0.29 -0.87 0.32 -0.83 0.35 -0.81 0.38 -0.76 0.4 -0.73 0.44 -0.71 0.46 -0.66 0.48 -0.64 0.5 -0.61 0.53 -0.57 0.54 -0.55 0.56 -0.52 0.57 -0.49 0.6 -0.47 0.6 -0.43 0.62 -0.41 0.62 -0.39 0.64 -0.36 0.64 -0.33 0.64 -0.31 0.65 -0.29 0.65 -0.26 0.65 -0.24 0.65 -0.22 0.64 -0.2 0.64 -0.18 0.64 -0.16 0.62 -0.13 0.62 -1.71 -0.31 0.15 -0.65 0.17 -0.67 0.19 -0.67 0.21 -0.68 0.23 -0.69 0.26 -0.69 0.28 -0.69 0.3 -0.69 0.33 -0.7 0.36 -0.69 0.39 -0.68 0.41 -0.68 0.44 -0.68 0.48 -0.66 0.5 -0.65 0.53 -0.64 0.56 -0.63 0.6 -0.61 0.63 -0.59 0.66 -0.57 0.69 -0.55 0.73 -0.53 0.77 -0.5 0.8 -0.47 0.84 -0.45 0.87 -0.41 0.92 -0.38 0.95 -0.35 0.98 -0.31 1.03 -0.27 1.06 -0.24 1.11 -0.19zm0 0c0.47,-0.07 0.91,0.22 0.99,0.66 0.08,0.44 -0.24,0.86 -0.71,0.93l-0.28 -1.59z"/>
  </g>
  <g>
   <path class="fil3" d="M83.04 42.74c-0.43,-0.19 -0.61,-0.67 -0.41,-1.07 0.21,-0.4 0.72,-0.57 1.16,-0.38l-0.75 1.45zm11.02 61.15l-0.87 1.39 -0.05 -1.36 1.3 -0.93 1.22 -1.1 1.14 -1.28 1.05 -1.43 0.97 -1.57 0.87 -1.72 0.78 -1.83 0.68 -1.95 0.58 -2.05 0.48 -2.14 0.37 -2.21 0.27 -2.27 0.15 -2.33 0.05 -2.36 -0.07 -2.4 -0.18 -2.41 -0.31 -2.41 -0.41 -2.41 -0.54 -2.39 -0.66 -2.35 -0.78 -2.32 -0.91 -2.25 -1.03 -2.19 -1.16 -2.12 -1.28 -2.02 -1.42 -1.92 -1.54 -1.82 -1.67 -1.68 -1.81 -1.56 -1.94 -1.41 -2.08 -1.26 -2.22 -1.09 0.75 -1.45 2.35 1.16 2.21 1.33 2.05 1.5 1.92 1.64 1.76 1.78 1.62 1.9 1.48 2.02 1.34 2.11 1.21 2.2 1.07 2.27 0.94 2.34 0.8 2.39 0.69 2.44 0.55 2.46 0.43 2.48 0.31 2.48 0.19 2.48 0.07 2.47 -0.04 2.44 -0.16 2.4 -0.28 2.34 -0.38 2.29 -0.5 2.22 -0.6 2.13 -0.72 2.04 -0.82 1.93 -0.92 1.82 -1.04 1.69 -1.14 1.54 -1.25 1.4 -1.35 1.23 -1.47 1.04 -0.05 -1.36zm0.05 1.36c-0.39,0.25 -0.93,0.16 -1.2,-0.21 -0.27,-0.37 -0.16,-0.87 0.23,-1.12l0.97 1.33zm42.48 72.15l-1.73 -0.04 0.04 -2.59 -0.04 -2.58 -0.11 -2.58 -0.18 -2.57 -0.26 -2.57 -0.33 -2.56 -0.41 -2.54 -0.5 -2.53 -0.57 -2.51 -0.66 -2.5 -0.74 -2.47 -0.82 -2.46 -0.92 -2.43 -1 -2.4 -1.09 -2.38 -1.19 -2.35 -1.28 -2.31 -1.38 -2.29 -1.47 -2.25 -1.57 -2.21 -1.67 -2.17 -1.78 -2.14 -1.88 -2.09 -1.98 -2.04 -2.09 -2 -2.2 -1.96 -2.31 -1.9 -2.43 -1.85 -2.53 -1.8 -2.66 -1.74 -2.77 -1.68 -2.89 -1.63 0.87 -1.39 2.95 1.66 2.82 1.71 2.7 1.78 2.59 1.83 2.47 1.89 2.36 1.94 2.25 1.99 2.14 2.05 2.02 2.09 1.92 2.14 1.82 2.18 1.71 2.22 1.6 2.26 1.51 2.3 1.41 2.33 1.31 2.37 1.21 2.4 1.11 2.43 1.03 2.46 0.93 2.48 0.85 2.5 0.75 2.52 0.67 2.55 0.58 2.56 0.51 2.58 0.41 2.59 0.34 2.6 0.27 2.61 0.18 2.62 0.11 2.62 0.04 2.62 -0.04 2.63zm0 0c-0.01,0.45 -0.41,0.8 -0.88,0.79 -0.48,-0.01 -0.86,-0.38 -0.85,-0.83l1.73 0.04z"/>
  </g>
  <g>
   <path class="fil3" d="M92.69 90.64c-0.32,0.14 -0.7,0.01 -0.85,-0.29 -0.15,-0.29 -0.01,-0.65 0.31,-0.79l0.54 1.08zm2.07 -3.47l1.11 0.58 -0.07 0.11 -0.07 0.12 -0.08 0.11 -0.07 0.11 -0.08 0.1 -0.07 0.11 -0.08 0.11 -0.08 0.1 -0.09 0.1 -0.08 0.11 -0.09 0.1 -0.08 0.1 -0.1 0.1 -0.09 0.09 -0.09 0.1 -0.1 0.09 -0.1 0.09 -0.1 0.09 -0.1 0.09 -0.11 0.09 -0.1 0.08 -0.11 0.09 -0.12 0.08 -0.11 0.07 -0.12 0.08 -0.12 0.07 -0.12 0.08 -0.13 0.07 -0.13 0.06 -0.12 0.07 -0.14 0.06 -0.13 0.06 -0.54 -1.08 0.11 -0.04 0.1 -0.05 0.11 -0.05 0.1 -0.06 0.09 -0.05 0.1 -0.06 0.1 -0.06 0.09 -0.06 0.1 -0.06 0.08 -0.07 0.09 -0.06 0.09 -0.07 0.08 -0.07 0.09 -0.07 0.08 -0.08 0.08 -0.07 0.08 -0.08 0.08 -0.07 0.07 -0.08 0.07 -0.08 0.08 -0.09 0.07 -0.08 0.07 -0.09 0.07 -0.09 0.07 -0.09 0.07 -0.09 0.07 -0.09 0.06 -0.09 0.07 -0.1 0.06 -0.09 0.06 -0.1 0.07 -0.1zm0 0c0.17,-0.29 0.56,-0.39 0.87,-0.22 0.3,0.16 0.41,0.52 0.24,0.8l-1.11 -0.58z"/>
  </g>
  <g>
   <path class="fil3" d="M102.34 92.79c-0.32,0.13 -0.7,0 -0.85,-0.3 -0.14,-0.3 0.01,-0.65 0.33,-0.78l0.52 1.08zm7.03 -5.97l0.87 0.87 -0.2 0.17 -0.21 0.17 -0.21 0.18 -0.21 0.17 -0.21 0.18 -0.21 0.17 -0.22 0.18 -0.22 0.17 -0.22 0.17 -0.23 0.18 -0.22 0.17 -0.24 0.17 -0.23 0.17 -0.24 0.17 -0.24 0.16 -0.24 0.17 -0.24 0.16 -0.25 0.16 -0.26 0.16 -0.25 0.16 -0.26 0.16 -0.27 0.15 -0.26 0.15 -0.27 0.15 -0.27 0.15 -0.28 0.15 -0.28 0.14 -0.29 0.14 -0.28 0.13 -0.3 0.13 -0.29 0.13 -0.3 0.13 -0.52 -1.08 0.28 -0.12 0.28 -0.12 0.27 -0.13 0.28 -0.13 0.27 -0.13 0.26 -0.13 0.26 -0.14 0.26 -0.14 0.26 -0.14 0.25 -0.15 0.25 -0.14 0.24 -0.15 0.25 -0.15 0.24 -0.15 0.24 -0.16 0.23 -0.15 0.23 -0.16 0.23 -0.16 0.23 -0.16 0.22 -0.17 0.23 -0.16 0.22 -0.16 0.21 -0.17 0.22 -0.17 0.21 -0.16 0.21 -0.17 0.21 -0.17 0.2 -0.17 0.21 -0.17 0.2 -0.17 0.2 -0.17 0.2 -0.17zm0 0c0.25,-0.22 0.66,-0.21 0.9,0.03 0.24,0.24 0.23,0.61 -0.03,0.84l-0.87 -0.87z"/>
  </g>
  <g>
   <path class="fil3" d="M100.11 47.49c-0.41,-0.18 -0.58,-0.62 -0.39,-1 0.19,-0.37 0.67,-0.53 1.08,-0.35l-0.69 1.35zm10.23 56.81l-0.81 1.3 -0.04 -1.27 1.2 -0.86 1.14 -1.03 1.05 -1.18 0.98 -1.33 0.9 -1.47 0.81 -1.59 0.73 -1.7 0.63 -1.81 0.54 -1.91 0.44 -1.98 0.35 -2.06 0.25 -2.11 0.14 -2.16 0.04 -2.2 -0.06 -2.22 -0.17 -2.24 -0.28 -2.25 -0.39 -2.23 -0.5 -2.22 -0.61 -2.19 -0.73 -2.15 -0.84 -2.1 -0.96 -2.03 -1.07 -1.97 -1.2 -1.88 -1.31 -1.78 -1.43 -1.69 -1.56 -1.56 -1.68 -1.45 -1.8 -1.31 -1.93 -1.17 -2.06 -1.01 0.69 -1.35 2.18 1.07 2.05 1.24 1.91 1.39 1.78 1.53 1.64 1.65 1.51 1.77 1.37 1.87 1.25 1.97 1.12 2.04 0.99 2.11 0.87 2.18 0.75 2.22 0.64 2.26 0.51 2.28 0.4 2.31 0.29 2.31 0.18 2.3 0.06 2.29 -0.04 2.27 -0.15 2.23 -0.25 2.18 -0.36 2.13 -0.46 2.06 -0.56 1.98 -0.67 1.89 -0.76 1.79 -0.86 1.69 -0.96 1.57 -1.06 1.44 -1.16 1.29 -1.26 1.14 -1.36 0.98 -0.05 -1.27zm0.05 1.27c-0.37,0.23 -0.87,0.14 -1.12,-0.2 -0.24,-0.34 -0.15,-0.81 0.22,-1.04l0.9 1.24zm39.47 67.03l-1.61 -0.03 0.03 -2.41 -0.03 -2.4 -0.1 -2.4 -0.17 -2.39 -0.24 -2.38 -0.31 -2.38 -0.38 -2.36 -0.46 -2.35 -0.53 -2.34 -0.61 -2.32 -0.69 -2.3 -0.77 -2.28 -0.85 -2.25 -0.93 -2.24 -1.02 -2.21 -1.1 -2.18 -1.19 -2.15 -1.28 -2.12 -1.37 -2.09 -1.46 -2.06 -1.55 -2.02 -1.65 -1.98 -1.74 -1.94 -1.85 -1.9 -1.94 -1.86 -2.05 -1.81 -2.14 -1.77 -2.25 -1.72 -2.36 -1.67 -2.46 -1.62 -2.58 -1.57 -2.69 -1.5 0.81 -1.3 2.74 1.54 2.62 1.59 2.51 1.65 2.41 1.71 2.29 1.75 2.2 1.81 2.08 1.85 1.99 1.9 1.88 1.94 1.79 1.99 1.68 2.02 1.59 2.07 1.49 2.1 1.4 2.13 1.31 2.17 1.22 2.2 1.12 2.23 1.04 2.26 0.95 2.28 0.87 2.3 0.78 2.33 0.71 2.35 0.62 2.36 0.54 2.38 0.46 2.39 0.39 2.41 0.32 2.42 0.24 2.42 0.18 2.43 0.1 2.44 0.03 2.44 -0.03 2.44zm0 0c-0.01,0.41 -0.38,0.74 -0.82,0.73 -0.45,-0.01 -0.8,-0.35 -0.79,-0.76l1.61 0.03z"/>
  </g>
  <g>
   <path class="fil3" d="M115.5 50.03c-0.37,-0.16 -0.53,-0.57 -0.35,-0.91 0.17,-0.35 0.62,-0.49 0.99,-0.33l-0.64 1.24zm9.42 52.26l-0.74 1.19 -0.05 -1.17 1.11 -0.79 1.04 -0.95 0.97 -1.08 0.91 -1.23 0.82 -1.35 0.75 -1.46 0.67 -1.57 0.58 -1.66 0.49 -1.75 0.41 -1.83 0.32 -1.89 0.23 -1.94 0.13 -1.99 0.04 -2.02 -0.06 -2.05 -0.16 -2.06 -0.26 -2.06 -0.35 -2.06 -0.46 -2.04 -0.57 -2.01 -0.66 -1.98 -0.78 -1.93 -0.88 -1.87 -0.99 -1.8 -1.1 -1.73 -1.2 -1.65 -1.32 -1.54 -1.43 -1.45 -1.55 -1.33 -1.66 -1.2 -1.77 -1.08 -1.9 -0.93 0.64 -1.24 2.01 0.99 1.88 1.14 1.76 1.28 1.63 1.4 1.51 1.52 1.39 1.63 1.26 1.72 1.15 1.8 1.03 1.89 0.91 1.94 0.81 2 0.69 2.04 0.58 2.08 0.47 2.1 0.37 2.12 0.26 2.13 0.17 2.12 0.06 2.1 -0.04 2.09 -0.14 2.04 -0.23 2.01 -0.33 1.96 -0.42 1.89 -0.52 1.82 -0.61 1.75 -0.7 1.65 -0.79 1.55 -0.89 1.44 -0.97 1.32 -1.07 1.19 -1.16 1.06 -1.25 0.89 -0.04 -1.16zm0.04 1.16c-0.34,0.21 -0.8,0.13 -1.03,-0.18 -0.22,-0.32 -0.13,-0.75 0.2,-0.96l0.83 1.14zm36.31 61.65l-1.49 -0.03 0.03 -2.21 -0.03 -2.21 -0.09 -2.2 -0.16 -2.2 -0.22 -2.2 -0.28 -2.18 -0.35 -2.17 -0.42 -2.17 -0.49 -2.14 -0.57 -2.14 -0.63 -2.11 -0.7 -2.1 -0.79 -2.08 -0.85 -2.05 -0.94 -2.03 -1.01 -2.01 -1.1 -1.98 -1.17 -1.95 -1.26 -1.92 -1.34 -1.89 -1.43 -1.86 -1.52 -1.82 -1.6 -1.79 -1.7 -1.75 -1.79 -1.71 -1.88 -1.67 -1.97 -1.62 -2.07 -1.58 -2.17 -1.54 -2.27 -1.49 -2.36 -1.44 -2.47 -1.38 0.74 -1.19 2.51 1.41 2.42 1.47 2.31 1.51 2.21 1.57 2.11 1.61 2.02 1.66 1.92 1.71 1.82 1.74 1.74 1.79 1.64 1.83 1.55 1.86 1.46 1.9 1.37 1.93 1.29 1.97 1.2 1.99 1.12 2.03 1.03 2.05 0.96 2.07 0.87 2.1 0.8 2.12 0.72 2.14 0.65 2.16 0.57 2.17 0.5 2.19 0.43 2.2 0.35 2.21 0.3 2.23 0.22 2.23 0.16 2.23 0.09 2.24 0.03 2.25 -0.02 2.24zm0 0c-0.01,0.38 -0.35,0.68 -0.76,0.68 -0.41,-0.01 -0.73,-0.33 -0.73,-0.71l1.49 0.03z"/>
  </g>
  <g>
   <path class="fil3" d="M118.64 91.26c-0.32,0.14 -0.7,0 -0.84,-0.3 -0.15,-0.3 0,-0.65 0.32,-0.78l0.52 1.08zm5 -4.66l0.87 0.87 -0.15 0.13 -0.15 0.13 -0.15 0.13 -0.16 0.13 -0.16 0.13 -0.15 0.13 -0.17 0.13 -0.16 0.12 -0.16 0.13 -0.17 0.13 -0.17 0.13 -0.17 0.12 -0.18 0.13 -0.17 0.12 -0.18 0.13 -0.18 0.12 -0.18 0.12 -0.19 0.12 -0.19 0.12 -0.19 0.12 -0.19 0.12 -0.19 0.11 -0.2 0.12 -0.2 0.11 -0.21 0.11 -0.2 0.1 -0.21 0.11 -0.21 0.1 -0.22 0.1 -0.22 0.1 -0.22 0.1 -0.22 0.09 -0.52 -1.08 0.21 -0.09 0.2 -0.09 0.2 -0.09 0.2 -0.09 0.19 -0.1 0.2 -0.1 0.19 -0.09 0.19 -0.11 0.19 -0.1 0.18 -0.1 0.18 -0.11 0.18 -0.11 0.18 -0.11 0.18 -0.11 0.17 -0.11 0.17 -0.12 0.17 -0.11 0.17 -0.12 0.16 -0.12 0.17 -0.12 0.16 -0.12 0.16 -0.12 0.16 -0.12 0.16 -0.12 0.15 -0.13 0.16 -0.12 0.15 -0.12 0.15 -0.13 0.15 -0.12 0.15 -0.13 0.14 -0.12 0.15 -0.13zm0 0c0.26,-0.22 0.66,-0.21 0.9,0.03 0.24,0.24 0.23,0.62 -0.03,0.84l-0.87 -0.87z"/>
  </g>
  <polygon class="fil1" points="185.02,164.41 185.02,37.66 189.74,37.66 189.74,164.41 "/>
  <g>
   <path class="fil4" d="M277.35 144.6l-67.69 0 0 -10.9 43.08 -57.75 -39.96 0 0 -15.36 64.45 0 0 10.56 -42.13 58.09 42.25 0 0 15.36zm57.25 -24.72l-39.13 0c0.62,8.72 6.1,13.08 16.46,13.08 6.58,0 12.38,-1.56 17.38,-4.68l0 13.32c-5.54,2.96 -12.76,4.44 -21.62,4.44 -9.68,0 -17.2,-2.68 -22.56,-8.06 -5.34,-5.36 -8.02,-12.84 -8.02,-22.45 0,-9.96 2.9,-17.84 8.68,-23.66 5.78,-5.82 12.88,-8.72 21.32,-8.72 8.76,0 15.52,2.6 20.3,7.78 4.79,5.2 7.19,12.24 7.19,21.16l0 7.79zm-17.17 -11.41c0,-8.56 -3.48,-12.84 -10.42,-12.84 -2.98,0 -5.54,1.22 -7.7,3.68 -2.18,2.44 -3.5,5.5 -3.96,9.16l22.08 0zm58.93 -7.18c-2.22,-1.22 -4.82,-1.82 -7.8,-1.82 -4.02,0 -7.18,1.48 -9.44,4.42 -2.26,2.96 -3.4,6.96 -3.4,12.04l0 28.67 -18.48 0 0 -60.01 18.48 0 0 11.12 0.24 0c2.92,-8.14 8.2,-12.2 15.82,-12.2 1.96,0 3.48,0.24 4.58,0.7l0 17.08zm32.41 44.75c-10.01,0 -17.87,-2.8 -23.59,-8.4 -5.72,-5.6 -8.58,-13.2 -8.58,-22.81 0,-9.92 2.96,-17.68 8.9,-23.28 5.94,-5.6 13.99,-8.4 24.09,-8.4 9.96,0 17.78,2.8 23.44,8.4 5.66,5.6 8.5,13 8.5,22.22 0,9.97 -2.92,17.83 -8.76,23.61 -5.84,5.78 -13.84,8.66 -24,8.66zm0.5 -48.73c-4.36,0 -7.76,1.5 -10.19,4.52 -2.42,3 -3.64,7.26 -3.64,12.76 0,11.53 4.65,17.29 13.95,17.29 8.86,0 13.3,-5.92 13.3,-17.75 0,-11.22 -4.48,-16.82 -13.42,-16.82z"/>
   <path class="fil5" d="M523.53 75.95l-24 0 0 68.65 -18.97 0 0 -68.65 -23.88 0 0 -15.36 66.85 0 0 15.36zm14.04 -0.84c-3.12,0 -5.7,-0.92 -7.68,-2.78 -2,-1.86 -3,-4.14 -3,-6.84 0,-2.78 1,-5.06 3,-6.82 1.98,-1.76 4.56,-2.64 7.68,-2.64 3.16,0 5.74,0.88 7.72,2.64 1.98,1.76 2.96,4.04 2.96,6.82 0,2.8 -0.98,5.12 -2.96,6.92 -1.98,1.8 -4.56,2.7 -7.72,2.7zm9.12 69.49l-18.48 0 0 -60.01 18.48 0 0 60.01zm100.12 0l-18.49 0 0 -34.23c0,-8.7 -3.2,-13.06 -9.6,-13.06 -3.06,0 -5.54,1.3 -7.44,3.92 -1.92,2.62 -2.88,5.88 -2.88,9.78l0 33.59 -18.48 0 0 -34.57c0,-8.48 -3.16,-12.72 -9.46,-12.72 -3.18,0 -5.7,1.24 -7.6,3.74 -1.9,2.5 -2.86,5.9 -2.86,10.2l0 33.35 -18.49 0 0 -60.01 18.49 0 0 9.38 0.24 0c1.9,-3.2 4.6,-5.8 8.06,-7.8 3.46,-2.02 7.24,-3.02 11.34,-3.02 8.48,0 14.28,3.72 17.42,11.18 4.56,-7.46 11.28,-11.18 20.16,-11.18 13.07,0 19.59,8.04 19.59,24.14l0 37.31zm60.13 -24.72l-39.13 0c0.62,8.72 6.1,13.08 16.46,13.08 6.58,0 12.38,-1.56 17.38,-4.68l0 13.32c-5.54,2.96 -12.76,4.44 -21.62,4.44 -9.68,0 -17.2,-2.68 -22.56,-8.06 -5.34,-5.36 -8.02,-12.84 -8.02,-22.45 0,-9.96 2.9,-17.84 8.68,-23.66 5.78,-5.82 12.88,-8.72 21.32,-8.72 8.76,0 15.52,2.6 20.3,7.78 4.79,5.2 7.19,12.24 7.19,21.16l0 7.79zm-17.17 -11.41c0,-8.56 -3.48,-12.84 -10.42,-12.84 -2.98,0 -5.54,1.22 -7.7,3.68 -2.18,2.44 -3.5,5.5 -3.96,9.16l22.08 0z"/>
  </g>
  <path class="fil6" d="M365.47 177.84c0,0.23 -0.01,0.42 -0.02,0.58 -0.02,0.16 -0.04,0.3 -0.07,0.42 -0.02,0.11 -0.06,0.21 -0.11,0.3 -0.04,0.08 -0.11,0.17 -0.22,0.27 -0.1,0.11 -0.29,0.24 -0.58,0.41 -0.29,0.16 -0.64,0.32 -1.06,0.47 -0.42,0.14 -0.89,0.27 -1.43,0.37 -0.54,0.1 -1.12,0.15 -1.74,0.15 -1.22,0 -2.32,-0.19 -3.3,-0.56 -0.98,-0.38 -1.82,-0.94 -2.5,-1.69 -0.7,-0.75 -1.22,-1.68 -1.59,-2.8 -0.36,-1.12 -0.55,-2.42 -0.55,-3.9 0,-1.52 0.2,-2.86 0.61,-4.04 0.4,-1.17 0.97,-2.16 1.69,-2.96 0.72,-0.79 1.59,-1.4 2.61,-1.81 1.01,-0.41 2.12,-0.62 3.35,-0.62 0.49,0 0.96,0.04 1.43,0.13 0.46,0.08 0.88,0.19 1.27,0.32 0.39,0.13 0.74,0.29 1.05,0.46 0.31,0.18 0.53,0.33 0.65,0.45 0.13,0.13 0.21,0.23 0.26,0.31 0.04,0.09 0.08,0.19 0.11,0.32 0.02,0.13 0.05,0.28 0.06,0.45 0.01,0.18 0.02,0.39 0.02,0.65 0,0.27 -0.01,0.51 -0.03,0.7 -0.02,0.19 -0.05,0.35 -0.09,0.46 -0.05,0.12 -0.11,0.21 -0.17,0.26 -0.06,0.06 -0.14,0.09 -0.22,0.09 -0.13,0 -0.31,-0.08 -0.52,-0.24 -0.21,-0.16 -0.48,-0.34 -0.82,-0.54 -0.33,-0.2 -0.73,-0.37 -1.19,-0.54 -0.47,-0.15 -1.01,-0.23 -1.66,-0.23 -0.7,0 -1.33,0.14 -1.89,0.43 -0.55,0.29 -1.02,0.7 -1.41,1.23 -0.39,0.54 -0.69,1.19 -0.89,1.95 -0.2,0.76 -0.3,1.62 -0.3,2.57 0,1.05 0.11,1.95 0.32,2.72 0.22,0.76 0.53,1.39 0.92,1.89 0.4,0.49 0.88,0.86 1.45,1.1 0.56,0.25 1.2,0.37 1.9,0.37 0.64,0 1.19,-0.08 1.66,-0.23 0.47,-0.15 0.87,-0.32 1.2,-0.5 0.34,-0.18 0.61,-0.34 0.83,-0.49 0.21,-0.14 0.38,-0.22 0.5,-0.22 0.09,0 0.17,0.02 0.22,0.06 0.05,0.03 0.1,0.1 0.14,0.22 0.03,0.11 0.06,0.26 0.08,0.46 0.02,0.2 0.03,0.46 0.03,0.8zm32.54 1.18c0,0.27 -0.01,0.5 -0.04,0.69 -0.02,0.19 -0.06,0.34 -0.1,0.47 -0.05,0.12 -0.1,0.21 -0.17,0.26 -0.07,0.06 -0.15,0.09 -0.24,0.09l-8.16 0c-0.3,0 -0.56,-0.09 -0.76,-0.27 -0.21,-0.18 -0.31,-0.47 -0.31,-0.87l0 -16.18c0,-0.09 0.03,-0.18 0.09,-0.25 0.06,-0.07 0.16,-0.13 0.29,-0.18 0.14,-0.05 0.33,-0.08 0.56,-0.11 0.24,-0.03 0.53,-0.04 0.87,-0.04 0.36,0 0.66,0.01 0.89,0.04 0.22,0.03 0.41,0.06 0.55,0.11 0.13,0.05 0.23,0.11 0.29,0.18 0.07,0.07 0.09,0.16 0.09,0.25l0 14.33 5.6 0c0.09,0 0.17,0.02 0.24,0.08 0.07,0.05 0.12,0.13 0.17,0.24 0.05,0.12 0.08,0.27 0.1,0.46 0.03,0.19 0.04,0.42 0.04,0.7zm25.93 1.01c0,0.09 -0.03,0.18 -0.09,0.25 -0.06,0.07 -0.16,0.14 -0.3,0.18 -0.13,0.04 -0.32,0.08 -0.55,0.11 -0.23,0.03 -0.52,0.04 -0.88,0.04 -0.35,0 -0.64,-0.01 -0.87,-0.04 -0.24,-0.03 -0.43,-0.07 -0.56,-0.11 -0.14,-0.04 -0.24,-0.11 -0.3,-0.18 -0.06,-0.07 -0.09,-0.16 -0.09,-0.25l0 -16.82c0,-0.09 0.03,-0.18 0.09,-0.25 0.06,-0.07 0.16,-0.13 0.31,-0.18 0.14,-0.05 0.32,-0.08 0.55,-0.11 0.23,-0.03 0.52,-0.04 0.87,-0.04 0.36,0 0.65,0.01 0.88,0.04 0.23,0.03 0.42,0.06 0.55,0.11 0.14,0.05 0.24,0.11 0.3,0.18 0.06,0.07 0.09,0.16 0.09,0.25l0 16.82zm-0.96 -22.12c0.12,-0.14 0.24,-0.25 0.35,-0.34 0.12,-0.08 0.25,-0.14 0.41,-0.19 0.16,-0.04 0.36,-0.07 0.59,-0.09 0.23,-0.01 0.51,-0.02 0.85,-0.02 0.42,0 0.75,0.03 0.99,0.09 0.23,0.05 0.39,0.12 0.48,0.21 0.08,0.09 0.1,0.19 0.06,0.3 -0.05,0.1 -0.14,0.22 -0.26,0.34l-3.06 2.75c-0.09,0.09 -0.18,0.16 -0.28,0.22 -0.1,0.06 -0.21,0.1 -0.35,0.15 -0.14,0.04 -0.3,0.07 -0.5,0.09 -0.19,0.02 -0.43,0.03 -0.71,0.03 -0.32,0 -0.57,-0.02 -0.75,-0.05 -0.19,-0.03 -0.32,-0.07 -0.4,-0.13 -0.08,-0.06 -0.11,-0.13 -0.09,-0.22 0.02,-0.1 0.08,-0.21 0.19,-0.33l2.48 -2.81zm39.68 21.35c0,0.21 -0.03,0.4 -0.11,0.57 -0.07,0.16 -0.17,0.3 -0.3,0.41 -0.12,0.11 -0.26,0.19 -0.43,0.24 -0.18,0.05 -0.34,0.08 -0.52,0.08l-1.54 0c-0.33,0 -0.61,-0.04 -0.84,-0.1 -0.23,-0.06 -0.45,-0.18 -0.64,-0.35 -0.21,-0.17 -0.39,-0.4 -0.58,-0.69 -0.18,-0.29 -0.39,-0.66 -0.62,-1.12l-4.42 -8.33c-0.26,-0.5 -0.52,-1.04 -0.78,-1.61 -0.27,-0.57 -0.51,-1.13 -0.72,-1.67l-0.03 0c0.04,0.66 0.07,1.32 0.09,1.98 0.02,0.65 0.03,1.33 0.03,2.03l0 9.32c0,0.09 -0.03,0.18 -0.08,0.25 -0.05,0.07 -0.14,0.13 -0.26,0.18 -0.12,0.05 -0.29,0.09 -0.5,0.12 -0.22,0.03 -0.49,0.04 -0.82,0.04 -0.32,0 -0.59,-0.01 -0.8,-0.04 -0.21,-0.03 -0.38,-0.07 -0.49,-0.12 -0.12,-0.04 -0.21,-0.11 -0.25,-0.18 -0.05,-0.07 -0.07,-0.16 -0.07,-0.25l0 -16.01c0,-0.43 0.12,-0.76 0.38,-0.97 0.25,-0.22 0.56,-0.33 0.93,-0.33l1.94 0c0.35,0 0.64,0.03 0.88,0.09 0.24,0.06 0.45,0.16 0.64,0.3 0.19,0.13 0.37,0.33 0.53,0.57 0.17,0.24 0.34,0.55 0.51,0.9l3.46 6.52c0.2,0.39 0.4,0.78 0.6,1.16 0.2,0.39 0.39,0.77 0.57,1.15 0.18,0.38 0.36,0.75 0.53,1.12 0.18,0.37 0.35,0.74 0.51,1.1l0.02 0c-0.03,-0.64 -0.05,-1.31 -0.07,-2.01 -0.01,-0.7 -0.02,-1.36 -0.02,-2l0 -8.36c0,-0.09 0.03,-0.17 0.09,-0.25 0.05,-0.07 0.14,-0.14 0.27,-0.19 0.13,-0.06 0.3,-0.1 0.51,-0.12 0.21,-0.02 0.49,-0.03 0.82,-0.03 0.31,0 0.57,0.01 0.79,0.03 0.21,0.02 0.37,0.06 0.48,0.12 0.12,0.05 0.2,0.12 0.24,0.19 0.05,0.08 0.07,0.16 0.07,0.25l0 16.01zm27.68 0.77c0,0.09 -0.03,0.18 -0.09,0.25 -0.06,0.07 -0.16,0.14 -0.3,0.18 -0.13,0.04 -0.32,0.08 -0.55,0.11 -0.23,0.03 -0.52,0.04 -0.88,0.04 -0.35,0 -0.64,-0.01 -0.87,-0.04 -0.24,-0.03 -0.43,-0.07 -0.56,-0.11 -0.14,-0.04 -0.24,-0.11 -0.3,-0.18 -0.06,-0.07 -0.09,-0.16 -0.09,-0.25l0 -16.82c0,-0.09 0.03,-0.18 0.09,-0.25 0.06,-0.07 0.16,-0.13 0.31,-0.18 0.14,-0.05 0.32,-0.08 0.55,-0.11 0.23,-0.03 0.52,-0.04 0.87,-0.04 0.36,0 0.65,0.01 0.88,0.04 0.23,0.03 0.42,0.06 0.55,0.11 0.14,0.05 0.24,0.11 0.3,0.18 0.06,0.07 0.09,0.16 0.09,0.25l0 16.82zm36.35 -2.19c0,0.23 0,0.42 -0.01,0.58 -0.02,0.16 -0.04,0.3 -0.07,0.42 -0.02,0.11 -0.06,0.21 -0.11,0.3 -0.04,0.08 -0.11,0.17 -0.22,0.27 -0.1,0.11 -0.29,0.24 -0.58,0.41 -0.29,0.16 -0.64,0.32 -1.06,0.47 -0.42,0.14 -0.9,0.27 -1.43,0.37 -0.54,0.1 -1.12,0.15 -1.74,0.15 -1.22,0 -2.32,-0.19 -3.3,-0.56 -0.98,-0.38 -1.82,-0.94 -2.51,-1.69 -0.69,-0.75 -1.21,-1.68 -1.58,-2.8 -0.37,-1.12 -0.55,-2.42 -0.55,-3.9 0,-1.52 0.2,-2.86 0.61,-4.04 0.4,-1.17 0.96,-2.16 1.69,-2.96 0.72,-0.79 1.59,-1.4 2.61,-1.81 1.01,-0.41 2.12,-0.62 3.35,-0.62 0.49,0 0.96,0.04 1.42,0.13 0.46,0.08 0.89,0.19 1.28,0.32 0.39,0.13 0.73,0.29 1.05,0.46 0.31,0.18 0.53,0.33 0.65,0.45 0.12,0.13 0.21,0.23 0.26,0.31 0.04,0.09 0.08,0.19 0.1,0.32 0.03,0.13 0.06,0.28 0.07,0.45 0.01,0.18 0.02,0.39 0.02,0.65 0,0.27 -0.01,0.51 -0.03,0.7 -0.02,0.19 -0.05,0.35 -0.09,0.46 -0.05,0.12 -0.11,0.21 -0.17,0.26 -0.06,0.06 -0.14,0.09 -0.22,0.09 -0.13,0 -0.31,-0.08 -0.52,-0.24 -0.21,-0.16 -0.48,-0.34 -0.82,-0.54 -0.33,-0.2 -0.73,-0.37 -1.2,-0.54 -0.46,-0.15 -1.01,-0.23 -1.65,-0.23 -0.7,0 -1.33,0.14 -1.89,0.43 -0.55,0.29 -1.02,0.7 -1.41,1.23 -0.39,0.54 -0.69,1.19 -0.89,1.95 -0.2,0.76 -0.3,1.62 -0.3,2.57 0,1.05 0.11,1.95 0.32,2.72 0.22,0.76 0.52,1.39 0.92,1.89 0.4,0.49 0.88,0.86 1.45,1.1 0.56,0.25 1.2,0.37 1.9,0.37 0.64,0 1.19,-0.08 1.66,-0.23 0.47,-0.15 0.87,-0.32 1.2,-0.5 0.34,-0.18 0.61,-0.34 0.83,-0.49 0.21,-0.14 0.38,-0.22 0.5,-0.22 0.09,0 0.16,0.02 0.22,0.06 0.05,0.03 0.1,0.1 0.14,0.22 0.03,0.11 0.06,0.26 0.08,0.46 0.02,0.2 0.02,0.46 0.02,0.8zm37.35 1.34c0.11,0.33 0.18,0.59 0.21,0.78 0.03,0.2 -0.01,0.34 -0.11,0.44 -0.1,0.1 -0.28,0.16 -0.54,0.18 -0.25,0.02 -0.61,0.03 -1.06,0.03 -0.47,0 -0.83,0 -1.09,-0.02 -0.26,-0.01 -0.46,-0.04 -0.6,-0.08 -0.14,-0.04 -0.23,-0.1 -0.29,-0.17 -0.06,-0.08 -0.1,-0.17 -0.14,-0.29l-1.17 -3.58 -6.71 0 -1.13 3.48c-0.03,0.13 -0.08,0.24 -0.14,0.32 -0.06,0.09 -0.16,0.16 -0.29,0.21 -0.13,0.05 -0.32,0.09 -0.56,0.11 -0.25,0.01 -0.56,0.02 -0.96,0.02 -0.42,0 -0.75,-0.01 -0.99,-0.04 -0.24,-0.03 -0.41,-0.09 -0.49,-0.2 -0.1,-0.11 -0.13,-0.26 -0.1,-0.45 0.03,-0.19 0.1,-0.44 0.2,-0.77l5.49 -15.81c0.05,-0.15 0.12,-0.28 0.19,-0.37 0.07,-0.1 0.19,-0.17 0.35,-0.22 0.16,-0.06 0.39,-0.09 0.67,-0.1 0.28,-0.02 0.66,-0.02 1.13,-0.02 0.54,0 0.97,0 1.29,0.02 0.33,0.01 0.57,0.04 0.75,0.1 0.18,0.05 0.31,0.12 0.39,0.22 0.07,0.11 0.14,0.24 0.2,0.41l5.5 15.8zm-8.17 -13.08l-0.02 0 -2.48 7.58 5 0 -2.5 -7.58z"/>
 </g>
</svg>
