<?xml version="1.0" encoding="UTF-8"?>
<!DOCTYPE svg PUBLIC "-//W3C//DTD SVG 1.1//EN" "http://www.w3.org/Graphics/SVG/1.1/DTD/svg11.dtd">
<!-- Creator: CorelDRAW 2019 (64 Bit) -->
<svg xmlns="http://www.w3.org/2000/svg" xml:space="preserve" width="173px" height="200px" version="1.1" style="shape-rendering:geometricPrecision; text-rendering:geometricPrecision; image-rendering:optimizeQuality; fill-rule:evenodd; clip-rule:evenodd"
viewBox="0 0 173 200"
 xmlns:xlink="http://www.w3.org/1999/xlink">
 <defs>
  <style type="text/css">
   <![CDATA[
    .fil0 {fill:none}
    .fil1 {fill:#0044A9}
    .fil2 {fill:#FEFEFE;fill-rule:nonzero}
    .fil3 {fill:#0044A9;fill-rule:nonzero}
   ]]>
  </style>
 </defs>
 <g id="Camada_x0020_1">
  <metadata id="CorelCorpID_0Corel-Layer"/>
  <rect class="fil0" x="-0.5" width="173" height="200"/>
  <g id="_2566293051616">
   <path class="fil1" d="M128.82 185.26l-127.87 0c8.04,-97 127.97,-85.41 127.87,0z"/>
   <ellipse class="fil1" cx="65.18" cy="72.42" rx="37.21" ry="38.22"/>
   <g>
    <path class="fil2" d="M50.95 91.22c-0.24,-0.41 -0.07,-0.93 0.38,-1.15 0.44,-0.22 1,-0.07 1.24,0.35l-1.62 0.8zm28.99 -1.59l1.6 0.84 -0.6 0.9 -0.67 0.86 -0.74 0.8 -0.79 0.75 -0.85 0.69 -0.89 0.64 -0.94 0.59 -0.98 0.53 -1.02 0.48 -1.05 0.42 -1.07 0.37 -1.1 0.31 -1.11 0.25 -1.13 0.19 -1.14 0.14 -1.14 0.08 -1.14 0.03 -1.14 -0.04 -1.13 -0.1 -1.12 -0.16 -1.1 -0.22 -1.09 -0.28 -1.06 -0.35 -1.03 -0.41 -0.99 -0.48 -0.95 -0.54 -0.92 -0.61 -0.86 -0.68 -0.8 -0.75 -0.75 -0.82 -0.68 -0.88 -0.61 -0.96 1.62 -0.8 0.53 0.83 0.59 0.77 0.65 0.7 0.7 0.65 0.75 0.6 0.79 0.53 0.84 0.48 0.88 0.42 0.91 0.36 0.95 0.31 0.97 0.26 0.99 0.2 1.01 0.14 1.03 0.09 1.03 0.03 1.04 -0.02 1.05 -0.07 1.03 -0.13 1.03 -0.18 1.02 -0.23 0.99 -0.28 0.98 -0.33 0.95 -0.38 0.92 -0.44 0.88 -0.47 0.84 -0.53 0.81 -0.57 0.75 -0.62 0.7 -0.66 0.64 -0.71 0.59 -0.75 0.53 -0.79zm0 0c0.25,-0.41 0.81,-0.56 1.25,-0.32 0.44,0.23 0.59,0.75 0.35,1.16l-1.6 -0.84z"/>
   </g>
   <g>
    <path class="fil3" d="M8.61 43.87c-0.1,0.46 -0.58,0.76 -1.08,0.67 -0.49,-0.09 -0.82,-0.54 -0.72,-1l1.8 0.33zm29.92 -29.97l0.26 1.69 -1.62 0.25 -1.57 0.33 -1.54 0.39 -1.48 0.46 -1.45 0.51 -1.4 0.58 -1.37 0.62 -1.32 0.69 -1.27 0.73 -1.24 0.77 -1.19 0.82 -1.15 0.87 -1.1 0.9 -1.06 0.93 -1.02 0.97 -0.97 1 -0.93 1.02 -0.89 1.05 -0.84 1.06 -0.8 1.09 -0.75 1.1 -0.7 1.1 -0.66 1.12 -0.62 1.13 -0.56 1.12 -0.53 1.12 -0.47 1.12 -0.43 1.12 -0.38 1.1 -0.34 1.09 -0.29 1.07 -0.24 1.05 -1.8 -0.33 0.25 -1.11 0.31 -1.13 0.35 -1.14 0.4 -1.15 0.45 -1.17 0.5 -1.17 0.54 -1.17 0.59 -1.17 0.64 -1.17 0.69 -1.17 0.74 -1.15 0.78 -1.15 0.83 -1.13 0.88 -1.11 0.92 -1.09 0.97 -1.07 1.02 -1.05 1.07 -1.01 1.11 -0.98 1.16 -0.95 1.21 -0.9 1.25 -0.87 1.3 -0.82 1.35 -0.76 1.39 -0.72 1.44 -0.67 1.48 -0.6 1.53 -0.55 1.58 -0.48 1.61 -0.41 1.67 -0.35 1.71 -0.27zm0 0c0.5,-0.06 0.96,0.26 1.03,0.72 0.08,0.47 -0.27,0.9 -0.77,0.97l-0.26 -1.69z"/>
   </g>
   <g>
    <path class="fil3" d="M17.72 46.25c-0.1,0.46 -0.58,0.76 -1.08,0.67 -0.5,-0.09 -0.82,-0.54 -0.73,-1l1.81 0.33zm22.71 -23.16l0.1 1.7 -1.12 0.09 -1.1 0.15 -1.08 0.21 -1.06 0.28 -1.03 0.33 -1.02 0.39 -1 0.44 -0.97 0.48 -0.95 0.54 -0.92 0.58 -0.9 0.62 -0.88 0.66 -0.85 0.69 -0.82 0.73 -0.79 0.76 -0.77 0.78 -0.73 0.81 -0.7 0.83 -0.67 0.85 -0.64 0.86 -0.6 0.87 -0.57 0.89 -0.54 0.89 -0.49 0.89 -0.47 0.89 -0.42 0.88 -0.39 0.88 -0.35 0.87 -0.3 0.86 -0.27 0.84 -0.23 0.82 -0.18 0.8 -1.81 -0.33 0.21 -0.86 0.24 -0.88 0.29 -0.9 0.32 -0.91 0.37 -0.92 0.41 -0.93 0.45 -0.94 0.48 -0.94 0.53 -0.93 0.56 -0.94 0.6 -0.92 0.63 -0.92 0.67 -0.91 0.71 -0.89 0.74 -0.87 0.77 -0.86 0.81 -0.83 0.84 -0.8 0.87 -0.77 0.91 -0.74 0.93 -0.71 0.97 -0.66 0.99 -0.62 1.03 -0.58 1.05 -0.53 1.09 -0.48 1.11 -0.42 1.14 -0.37 1.16 -0.3 1.19 -0.24 1.22 -0.16 1.23 -0.1zm0 0c0.51,-0.02 0.94,0.34 0.97,0.81 0.02,0.47 -0.37,0.87 -0.87,0.89l-0.1 -1.7z"/>
   </g>
   <g>
    <path class="fil3" d="M25.64 50.64c-0.1,0.46 -0.58,0.76 -1.08,0.67 -0.5,-0.09 -0.82,-0.54 -0.73,-1l1.81 0.33zm17.7 -19.24l0.3 1.68 -1.09 0.19 -1.04 0.23 -1 0.26 -0.96 0.31 -0.93 0.33 -0.88 0.37 -0.85 0.41 -0.81 0.43 -0.77 0.45 -0.75 0.49 -0.7 0.51 -0.68 0.53 -0.64 0.56 -0.61 0.57 -0.58 0.6 -0.55 0.61 -0.52 0.62 -0.49 0.64 -0.47 0.65 -0.43 0.67 -0.41 0.67 -0.38 0.68 -0.35 0.68 -0.33 0.69 -0.31 0.68 -0.28 0.69 -0.25 0.69 -0.23 0.68 -0.21 0.68 -0.19 0.67 -0.17 0.66 -0.14 0.66 -1.81 -0.33 0.16 -0.69 0.18 -0.71 0.2 -0.71 0.22 -0.72 0.25 -0.73 0.27 -0.73 0.3 -0.73 0.32 -0.73 0.35 -0.74 0.38 -0.73 0.41 -0.72 0.44 -0.73 0.46 -0.71 0.5 -0.7 0.53 -0.69 0.57 -0.68 0.59 -0.66 0.64 -0.65 0.66 -0.62 0.7 -0.61 0.74 -0.58 0.77 -0.56 0.81 -0.53 0.85 -0.5 0.89 -0.47 0.93 -0.44 0.96 -0.41 1.01 -0.36 1.04 -0.33 1.09 -0.29 1.12 -0.25 1.17 -0.2zm0 0c0.5,-0.08 0.98,0.23 1.06,0.7 0.08,0.46 -0.26,0.9 -0.76,0.98l-0.3 -1.68z"/>
   </g>
   <g>
    <path class="fil3" d="M88.96 38.47c-0.45,-0.2 -0.65,-0.71 -0.43,-1.13 0.21,-0.43 0.76,-0.61 1.22,-0.41l-0.79 1.54zm11.67 64.76l-0.92 1.47 -0.05 -1.44 1.37 -0.98 1.29 -1.17 1.21 -1.35 1.12 -1.52 1.02 -1.67 0.92 -1.81 0.83 -1.94 0.72 -2.07 0.62 -2.17 0.5 -2.26 0.4 -2.34 0.28 -2.41 0.16 -2.46 0.05 -2.51 -0.07 -2.53 -0.2 -2.56 -0.32 -2.55 -0.44 -2.55 -0.57 -2.53 -0.7 -2.5 -0.83 -2.44 -0.96 -2.4 -1.09 -2.32 -1.22 -2.23 -1.36 -2.15 -1.5 -2.03 -1.64 -1.92 -1.77 -1.79 -1.91 -1.65 -2.06 -1.49 -2.2 -1.33 -2.35 -1.16 0.79 -1.54 2.49 1.23 2.34 1.41 2.18 1.59 2.02 1.74 1.87 1.88 1.72 2.02 1.57 2.13 1.42 2.24 1.27 2.33 1.13 2.41 1 2.47 0.86 2.53 0.72 2.58 0.58 2.61 0.46 2.62 0.33 2.63 0.2 2.63 0.07 2.61 -0.04 2.58 -0.17 2.55 -0.29 2.48 -0.41 2.43 -0.53 2.34 -0.64 2.26 -0.75 2.16 -0.87 2.05 -0.98 1.92 -1.1 1.79 -1.21 1.63 -1.32 1.48 -1.43 1.3 -1.55 1.11 -0.06 -1.44zm0.06 1.44c-0.42,0.27 -0.99,0.16 -1.28,-0.23 -0.28,-0.38 -0.17,-0.91 0.25,-1.18l1.03 1.41zm44.99 76.41l-1.84 -0.04 0.04 -2.74 -0.04 -2.74 -0.12 -2.73 -0.19 -2.73 -0.27 -2.72 -0.36 -2.7 -0.43 -2.7 -0.52 -2.68 -0.61 -2.66 -0.7 -2.64 -0.78 -2.62 -0.88 -2.6 -0.96 -2.58 -1.07 -2.54 -1.16 -2.52 -1.25 -2.49 -1.36 -2.45 -1.45 -2.42 -1.56 -2.38 -1.67 -2.34 -1.77 -2.3 -1.88 -2.26 -1.99 -2.22 -2.1 -2.16 -2.21 -2.12 -2.33 -2.07 -2.45 -2.01 -2.57 -1.96 -2.68 -1.91 -2.81 -1.84 -2.94 -1.79 -3.06 -1.72 0.92 -1.47 3.12 1.75 2.99 1.82 2.86 1.88 2.74 1.94 2.62 2 2.5 2.06 2.38 2.11 2.26 2.16 2.15 2.22 2.03 2.26 1.92 2.31 1.81 2.35 1.71 2.4 1.59 2.43 1.49 2.48 1.39 2.5 1.28 2.54 1.18 2.58 1.09 2.6 0.99 2.62 0.89 2.66 0.8 2.67 0.71 2.69 0.62 2.72 0.53 2.72 0.44 2.75 0.36 2.75 0.28 2.77 0.19 2.77 0.12 2.77 0.04 2.79 -0.03 2.78zm0 0c-0.02,0.47 -0.44,0.84 -0.94,0.83 -0.51,-0.01 -0.91,-0.4 -0.9,-0.87l1.84 0.04z"/>
   </g>
   <g>
    <path class="fil3" d="M99.17 89.2c-0.33,0.14 -0.74,0 -0.89,-0.31 -0.16,-0.31 -0.01,-0.69 0.33,-0.83l0.56 1.14zm2.2 -3.68l1.17 0.62 -0.07 0.12 -0.08 0.12 -0.07 0.11 -0.08 0.12 -0.08 0.11 -0.08 0.12 -0.09 0.11 -0.08 0.11 -0.09 0.11 -0.09 0.11 -0.09 0.1 -0.09 0.11 -0.1 0.1 -0.1 0.11 -0.1 0.09 -0.1 0.1 -0.11 0.1 -0.1 0.1 -0.11 0.09 -0.11 0.09 -0.12 0.09 -0.11 0.09 -0.12 0.09 -0.12 0.08 -0.13 0.08 -0.13 0.08 -0.13 0.07 -0.13 0.08 -0.13 0.07 -0.14 0.07 -0.14 0.07 -0.15 0.06 -0.56 -1.14 0.11 -0.05 0.11 -0.06 0.11 -0.05 0.11 -0.06 0.1 -0.06 0.11 -0.06 0.1 -0.06 0.09 -0.06 0.1 -0.07 0.1 -0.07 0.09 -0.07 0.09 -0.07 0.09 -0.07 0.09 -0.08 0.09 -0.08 0.08 -0.07 0.08 -0.08 0.09 -0.09 0.08 -0.08 0.08 -0.09 0.08 -0.09 0.07 -0.09 0.08 -0.09 0.07 -0.09 0.08 -0.1 0.07 -0.09 0.07 -0.1 0.07 -0.1 0.07 -0.1 0.06 -0.1 0.07 -0.11 0.07 -0.1zm0 0c0.18,-0.3 0.59,-0.41 0.92,-0.24 0.32,0.18 0.44,0.56 0.25,0.86l-1.17 -0.62z"/>
   </g>
   <g>
    <path class="fil3" d="M109.4 91.47c-0.34,0.14 -0.74,0 -0.9,-0.32 -0.15,-0.31 0.01,-0.68 0.35,-0.82l0.55 1.14zm7.44 -6.32l0.92 0.92 -0.21 0.18 -0.22 0.19 -0.22 0.18 -0.22 0.19 -0.22 0.18 -0.23 0.19 -0.23 0.18 -0.23 0.18 -0.24 0.19 -0.24 0.18 -0.24 0.18 -0.24 0.18 -0.25 0.18 -0.25 0.18 -0.26 0.18 -0.25 0.17 -0.26 0.17 -0.27 0.18 -0.26 0.17 -0.28 0.16 -0.27 0.17 -0.28 0.16 -0.28 0.16 -0.29 0.16 -0.29 0.16 -0.29 0.15 -0.3 0.15 -0.3 0.15 -0.3 0.14 -0.31 0.14 -0.32 0.14 -0.31 0.13 -0.55 -1.14 0.3 -0.13 0.29 -0.13 0.29 -0.13 0.29 -0.14 0.28 -0.14 0.29 -0.14 0.27 -0.14 0.28 -0.15 0.27 -0.15 0.27 -0.15 0.26 -0.16 0.26 -0.16 0.26 -0.16 0.25 -0.16 0.25 -0.16 0.25 -0.17 0.25 -0.16 0.24 -0.17 0.24 -0.17 0.24 -0.17 0.23 -0.18 0.24 -0.17 0.23 -0.18 0.22 -0.17 0.23 -0.18 0.22 -0.18 0.22 -0.18 0.22 -0.18 0.21 -0.18 0.22 -0.18 0.21 -0.18 0.21 -0.18zm0 0c0.27,-0.24 0.7,-0.22 0.96,0.03 0.25,0.25 0.24,0.65 -0.04,0.89l-0.92 -0.92z"/>
   </g>
   <g>
    <path class="fil3" d="M107.03 43.5c-0.42,-0.19 -0.6,-0.66 -0.4,-1.06 0.2,-0.39 0.71,-0.56 1.13,-0.37l-0.73 1.43zm10.85 60.17l-0.86 1.37 -0.05 -1.34 1.27 -0.92 1.2 -1.09 1.12 -1.25 1.04 -1.41 0.95 -1.55 0.86 -1.68 0.77 -1.81 0.67 -1.92 0.57 -2.01 0.47 -2.1 0.37 -2.18 0.26 -2.24 0.15 -2.29 0.04 -2.33 -0.06 -2.35 -0.18 -2.37 -0.3 -2.38 -0.41 -2.37 -0.53 -2.35 -0.65 -2.31 -0.77 -2.28 -0.89 -2.22 -1.01 -2.16 -1.14 -2.08 -1.27 -1.99 -1.39 -1.89 -1.52 -1.78 -1.64 -1.66 -1.78 -1.53 -1.91 -1.39 -2.05 -1.24 -2.18 -1.07 0.73 -1.43 2.32 1.14 2.17 1.31 2.02 1.47 1.88 1.62 1.74 1.75 1.6 1.87 1.45 1.98 1.32 2.08 1.19 2.17 1.05 2.24 0.92 2.3 0.8 2.35 0.67 2.39 0.55 2.42 0.42 2.44 0.3 2.45 0.19 2.44 0.07 2.43 -0.04 2.39 -0.16 2.37 -0.27 2.31 -0.38 2.25 -0.49 2.18 -0.59 2.1 -0.7 2 -0.81 1.9 -0.91 1.79 -1.02 1.66 -1.12 1.52 -1.23 1.38 -1.34 1.2 -1.44 1.04 -0.04 -1.34zm0.04 1.34c-0.39,0.24 -0.92,0.15 -1.18,-0.21 -0.26,-0.37 -0.16,-0.86 0.23,-1.1l0.95 1.31zm41.8 70.99l-1.7 -0.04 0.03 -2.55 -0.03 -2.54 -0.11 -2.54 -0.18 -2.53 -0.25 -2.53 -0.33 -2.51 -0.41 -2.51 -0.48 -2.49 -0.57 -2.47 -0.64 -2.45 -0.73 -2.44 -0.81 -2.41 -0.9 -2.39 -0.99 -2.37 -1.08 -2.34 -1.16 -2.31 -1.26 -2.28 -1.36 -2.25 -1.45 -2.21 -1.54 -2.18 -1.65 -2.13 -1.74 -2.1 -1.85 -2.06 -1.95 -2.01 -2.06 -1.97 -2.17 -1.92 -2.27 -1.88 -2.39 -1.82 -2.49 -1.77 -2.61 -1.71 -2.73 -1.66 -2.84 -1.59 0.86 -1.37 2.89 1.63 2.78 1.68 2.66 1.75 2.54 1.8 2.44 1.86 2.32 1.91 2.21 1.96 2.1 2.01 2 2.06 1.89 2.1 1.78 2.15 1.68 2.19 1.58 2.22 1.49 2.26 1.38 2.3 1.29 2.33 1.19 2.36 1.1 2.39 1.01 2.42 0.92 2.44 0.83 2.46 0.74 2.49 0.66 2.5 0.57 2.52 0.49 2.54 0.42 2.54 0.33 2.56 0.26 2.57 0.18 2.58 0.11 2.58 0.04 2.58 -0.04 2.59zm0 0c-0.01,0.43 -0.4,0.78 -0.87,0.77 -0.47,-0.01 -0.84,-0.38 -0.83,-0.81l1.7 0.04z"/>
   </g>
   <g>
    <path class="fil3" d="M123.34 46.19c-0.39,-0.17 -0.56,-0.6 -0.38,-0.97 0.19,-0.36 0.66,-0.51 1.05,-0.34l-0.67 1.31zm9.97 55.34l-0.79 1.26 -0.04 -1.23 1.17 -0.84 1.1 -1 1.03 -1.16 0.96 -1.29 0.87 -1.43 0.79 -1.55 0.71 -1.66 0.62 -1.76 0.52 -1.86 0.43 -1.93 0.34 -2 0.24 -2.06 0.14 -2.1 0.04 -2.15 -0.06 -2.16 -0.17 -2.18 -0.27 -2.19 -0.38 -2.18 -0.48 -2.16 -0.6 -2.13 -0.71 -2.09 -0.82 -2.04 -0.93 -1.99 -1.05 -1.91 -1.16 -1.83 -1.28 -1.74 -1.4 -1.64 -1.51 -1.53 -1.64 -1.41 -1.76 -1.27 -1.88 -1.14 -2 -0.99 0.67 -1.31 2.13 1.05 2 1.2 1.86 1.36 1.73 1.48 1.6 1.61 1.46 1.73 1.34 1.82 1.22 1.91 1.09 1.99 0.97 2.06 0.84 2.12 0.73 2.16 0.62 2.2 0.5 2.23 0.39 2.24 0.28 2.25 0.18 2.25 0.06 2.23 -0.04 2.2 -0.15 2.17 -0.24 2.13 -0.35 2.07 -0.45 2.01 -0.55 1.93 -0.64 1.84 -0.75 1.75 -0.84 1.64 -0.93 1.53 -1.03 1.4 -1.13 1.26 -1.23 1.11 -1.32 0.95 -0.05 -1.23zm0.05 1.23c-0.36,0.23 -0.85,0.14 -1.09,-0.19 -0.25,-0.33 -0.15,-0.79 0.21,-1.01l0.88 1.2zm38.44 65.29l-1.57 -0.03 0.03 -2.34 -0.03 -2.34 -0.1 -2.34 -0.16 -2.33 -0.24 -2.32 -0.3 -2.31 -0.37 -2.3 -0.45 -2.29 -0.52 -2.28 -0.59 -2.25 -0.67 -2.25 -0.75 -2.22 -0.82 -2.2 -0.91 -2.17 -0.99 -2.15 -1.08 -2.13 -1.15 -2.09 -1.25 -2.07 -1.33 -2.04 -1.42 -2 -1.52 -1.97 -1.6 -1.93 -1.7 -1.89 -1.8 -1.85 -1.89 -1.81 -1.99 -1.77 -2.09 -1.72 -2.2 -1.67 -2.29 -1.63 -2.4 -1.58 -2.51 -1.52 -2.62 -1.47 0.79 -1.26 2.66 1.5 2.56 1.55 2.44 1.61 2.35 1.66 2.23 1.7 2.14 1.76 2.03 1.81 1.94 1.85 1.83 1.89 1.74 1.93 1.64 1.98 1.55 2.01 1.45 2.04 1.36 2.08 1.28 2.12 1.18 2.14 1.1 2.17 1.01 2.2 0.93 2.22 0.84 2.25 0.77 2.26 0.68 2.29 0.6 2.3 0.53 2.32 0.46 2.33 0.38 2.34 0.3 2.36 0.24 2.36 0.17 2.37 0.1 2.37 0.03 2.38 -0.03 2.37zm0 0c-0.01,0.41 -0.37,0.72 -0.8,0.71 -0.43,0 -0.78,-0.34 -0.77,-0.74l1.57 0.03z"/>
   </g>
   <g>
    <path class="fil3" d="M126.66 89.86c-0.34,0.14 -0.74,-0.01 -0.89,-0.32 -0.16,-0.32 0,-0.69 0.34,-0.83l0.55 1.15zm5.3 -4.94l0.92 0.92 -0.16 0.14 -0.16 0.13 -0.16 0.14 -0.17 0.14 -0.16 0.13 -0.17 0.14 -0.17 0.14 -0.17 0.14 -0.18 0.13 -0.18 0.14 -0.18 0.13 -0.18 0.14 -0.18 0.13 -0.19 0.13 -0.19 0.13 -0.19 0.13 -0.19 0.13 -0.2 0.13 -0.2 0.13 -0.2 0.12 -0.2 0.12 -0.21 0.12 -0.21 0.12 -0.21 0.12 -0.22 0.12 -0.22 0.11 -0.22 0.11 -0.22 0.11 -0.23 0.11 -0.23 0.1 -0.23 0.11 -0.24 0.1 -0.55 -1.15 0.22 -0.09 0.21 -0.1 0.22 -0.09 0.21 -0.1 0.2 -0.1 0.21 -0.11 0.2 -0.1 0.2 -0.11 0.2 -0.11 0.19 -0.11 0.2 -0.12 0.19 -0.11 0.19 -0.12 0.18 -0.11 0.19 -0.12 0.18 -0.12 0.18 -0.13 0.18 -0.12 0.17 -0.13 0.18 -0.12 0.17 -0.13 0.17 -0.13 0.17 -0.12 0.16 -0.13 0.17 -0.13 0.16 -0.13 0.16 -0.14 0.16 -0.13 0.16 -0.13 0.16 -0.13 0.15 -0.14 0.16 -0.13zm0 0c0.27,-0.23 0.7,-0.22 0.95,0.03 0.26,0.26 0.24,0.65 -0.03,0.89l-0.92 -0.92z"/>
   </g>
  </g>
 </g>
</svg>
